<svg width="31" height="22" viewBox="0 0 31 22" fill="none" xmlns="http://www.w3.org/2000/svg">
<path d="M12.0812 20.8932L12.0728 20.8897L12.0464 20.8757C11.892 20.7931 11.7389 20.7083 11.5871 20.6214C9.76164 19.5661 8.0557 18.3265 6.49758 16.923C3.73816 14.4182 0.814453 10.7012 0.814453 6.12319C0.814453 2.70719 3.76934 -0.00180931 7.33584 -0.00180931C8.3273 -0.00653364 9.3071 0.206255 10.2024 0.62073C11.0976 1.03521 11.8853 1.6407 12.5069 2.39219C13.1286 1.64055 13.9165 1.03496 14.812 0.620476C15.7075 0.205994 16.6875 -0.00670932 17.6792 -0.00180931C21.2444 -0.00180931 24.1993 2.70719 24.1993 6.12319C24.1993 10.7024 21.2756 14.4194 18.5162 16.9219C16.9581 18.3253 15.2522 19.565 13.4267 20.6202C13.2749 20.7075 13.1218 20.7927 12.9674 20.8757L12.941 20.8897L12.9326 20.8944L12.929 20.8955C12.799 20.9625 12.6541 20.9976 12.5069 20.9976C12.3597 20.9976 12.2148 20.9625 12.0848 20.8955L12.0812 20.8932Z" fill="white"/>
<path d="M22.6763 18.9649L25.9553 12.7316H23.6939V8.69823L20.3018 14.9316H22.6763V18.9649ZM23.1286 21.1649C22.0858 21.1649 21.1059 20.9724 20.1887 20.5874C19.2716 20.2024 18.4739 19.6799 17.7954 19.0199C17.117 18.3599 16.5799 17.5838 16.1842 16.6916C15.7884 15.7993 15.5906 14.846 15.5906 13.8316C15.5906 12.8171 15.7884 11.8638 16.1842 10.9716C16.5799 10.0793 17.117 9.30323 17.7954 8.64323C18.4739 7.98323 19.2716 7.46073 20.1887 7.07573C21.1059 6.69073 22.0858 6.49823 23.1286 6.49823C24.1713 6.49823 25.1513 6.69073 26.0684 7.07573C26.9855 7.46073 27.7833 7.98323 28.4617 8.64323C29.1401 9.30323 29.6772 10.0793 30.0729 10.9716C30.4687 11.8638 30.6665 12.8171 30.6665 13.8316C30.6665 14.846 30.4687 15.7993 30.0729 16.6916C29.6772 17.5838 29.1401 18.3599 28.4617 19.0199C27.7833 19.6799 26.9855 20.2024 26.0684 20.5874C25.1513 20.9724 24.1713 21.1649 23.1286 21.1649Z" fill="#894189"/>
<path d="M23.0602 18.4982L26.0411 12.8315H23.9853V9.16486L20.9016 14.8315H23.0602V18.4982ZM23.4714 20.4982C22.5234 20.4982 21.6326 20.3232 20.7988 19.9732C19.9651 19.6232 19.2398 19.1482 18.6231 18.5482C18.0063 17.9482 17.5181 17.2426 17.1583 16.4315C16.7985 15.6204 16.6187 14.7537 16.6187 13.8315C16.6187 12.9093 16.7985 12.0426 17.1583 11.2315C17.5181 10.4204 18.0063 9.71486 18.6231 9.11486C19.2398 8.51486 19.9651 8.03986 20.7988 7.68986C21.6326 7.33986 22.5234 7.16486 23.4714 7.16486C24.4193 7.16486 25.3102 7.33986 26.1439 7.68986C26.9777 8.03986 27.7029 8.51486 28.3197 9.11486C28.9364 9.71486 29.4247 10.4204 29.7844 11.2315C30.1442 12.0426 30.3241 12.9093 30.3241 13.8315C30.3241 14.7537 30.1442 15.6204 29.7844 16.4315C29.4247 17.2426 28.9364 17.9482 28.3197 18.5482C27.7029 19.1482 26.9777 19.6232 26.1439 19.9732C25.3102 20.3232 24.4193 20.4982 23.4714 20.4982Z" fill="white"/>
</svg>
